HIERARCHY
ROOT Hips
{
	OFFSET 0.00000 0.00000 0.00000
	CHANNELS 6 Xposition Yposition Zposition Zrotation Yrotation Xrotation 
	JOINT LHipJoint
	{
		OFFSET 0 0 0
		CHANNELS 3 Zrotation Yrotation Xrotation
		JOINT LeftUpLeg
		{
			OFFSET 1.62964 -1.40469 0.78906
			CHANNELS 3 Zrotation Yrotation Xrotation
			JOINT LeftLeg
			{
				OFFSET 2.29640 -6.30932 0.00000
				CHANNELS 3 Zrotation Yrotation Xrotation
				JOINT LeftFoot
				{
					OFFSET 2.29451 -6.30412 0.00000
					CHANNELS 3 Zrotation Yrotation Xrotation
					JOINT LeftToeBase
					{
						OFFSET 0.03611 -0.09921 1.56387
						CHANNELS 3 Zrotation Yrotation Xrotation
						End Site
						{
							OFFSET 0.00000 -0.00000 0.80291
						}
					}
				}
			}
		}
	}
	JOINT RHipJoint
	{
		OFFSET 0 0 0
		CHANNELS 3 Zrotation Yrotation Xrotation
		JOINT RightUpLeg
		{
			OFFSET -1.73712 -1.40469 0.78906
			CHANNELS 3 Zrotation Yrotation Xrotation
			JOINT RightLeg
			{
				OFFSET -2.28137 -6.26801 0.00000
				CHANNELS 3 Zrotation Yrotation Xrotation
				JOINT RightFoot
				{
					OFFSET -2.28681 -6.28298 0.00000
					CHANNELS 3 Zrotation Yrotation Xrotation
					JOINT RightToeBase
					{
						OFFSET -0.15927 -0.43759 1.61103
						CHANNELS 3 Zrotation Yrotation Xrotation
						End Site
						{
							OFFSET -0.00000 -0.00000 0.84630
						}
					}
				}
			}
		}
	}
	JOINT LowerBack
	{
		OFFSET 0 0 0
		CHANNELS 3 Zrotation Yrotation Xrotation
		JOINT Spine
		{
			OFFSET -0.04227 2.04338 -0.00225
			CHANNELS 3 Zrotation Yrotation Xrotation
			JOINT Spine1
			{
				OFFSET -0.02148 2.04482 -0.04273
				CHANNELS 3 Zrotation Yrotation Xrotation
				JOINT Neck
				{
					OFFSET 0 0 0
					CHANNELS 3 Zrotation Yrotation Xrotation
					JOINT Neck1
					{
						OFFSET 0.09180 1.44629 0.19359
						CHANNELS 3 Zrotation Yrotation Xrotation
						JOINT Head
						{
							OFFSET 0.00887 1.40645 0.14750
							CHANNELS 3 Zrotation Yrotation Xrotation
							End Site
							{
								OFFSET -0.00669 1.50671 0.03707
							}
						}
					}
				}
				JOINT LeftShoulder
				{
					OFFSET 0 0 0
					CHANNELS 3 Zrotation Yrotation Xrotation
					JOINT LeftArm
					{
						OFFSET 2.17674 1.86763 -0.06520
						CHANNELS 3 Zrotation Yrotation Xrotation
						JOINT LeftForeArm
						{
							OFFSET 4.65776 -0.00000 0.00000
							CHANNELS 3 Zrotation Yrotation Xrotation
							JOINT LeftHand
							{
								OFFSET 3.55539 -0.00000 0.00000
								CHANNELS 3 Zrotation Yrotation Xrotation
								JOINT LeftFingerBase
								{
									OFFSET 0 0 0
									CHANNELS 3 Zrotation Yrotation Xrotation
									JOINT LeftHandIndex1
									{
										OFFSET 0.70726 -0.00000 0.00000
										CHANNELS 3 Zrotation Yrotation Xrotation
										End Site
										{
											OFFSET 0.57022 -0.00000 0.00000
										}
									}
								}
								JOINT LThumb
								{
									OFFSET 0 0 0
									CHANNELS 3 Zrotation Yrotation Xrotation
									End Site
									{
										OFFSET 0.57892 -0.00000 0.57892
									}
								}
							}
						}
					}
				}
				JOINT RightShoulder
				{
					OFFSET 0 0 0
					CHANNELS 3 Zrotation Yrotation Xrotation
					JOINT RightArm
					{
						OFFSET -2.80694 1.55459 -0.32496
						CHANNELS 3 Zrotation Yrotation Xrotation
						JOINT RightForeArm
						{
							OFFSET -4.71925 -0.00000 -0.00000
							CHANNELS 3 Zrotation Yrotation Xrotation
							JOINT RightHand
							{
								OFFSET -3.56990 -0.00000 0.00000
								CHANNELS 3 Zrotation Yrotation Xrotation
								JOINT RightFingerBase
								{
									OFFSET 0 0 0
									CHANNELS 3 Zrotation Yrotation Xrotation
									JOINT RightHandIndex1
									{
										OFFSET -0.50776 -0.00000 0.00000
										CHANNELS 3 Zrotation Yrotation Xrotation
										End Site
										{
											OFFSET -0.40937 -0.00000 0.00000
										}
									}
								}
								JOINT RThumb
								{
									OFFSET 0 0 0
									CHANNELS 3 Zrotation Yrotation Xrotation
									End Site
									{
										OFFSET -0.41562 -0.00000 0.41562
									}
								}
							}
						}
					}
				}
			}
		}
	}
}
MOTION
Frames: 10
Frame Time: 0.2
0.00 0.00 0.00 0 0 0 0 0 0 -21 0 0 0 0 0 0 0 0 0 0 0 0 0 0 21 0 0 0 0 0 0 0 0 0 0 0 0 0 0 0 0 0 0 0 0 0 0 -16 0 0 21 0 0 11 0 0 0 -8 0 0 0 0 0 0 0 0 0 0 0 0 0 0 0 0 0 0 0 0 8 0 0 0 0 0 0 0 0 0 0 0 0 0 0 0 0 0
0.00 0.00 0.00 178.8170 -4.0559 -146.7050 0.0000 0.0000 0.0000 -10.0846 -26.1684 -35.4363 1.5223 7.7909 22.0807 0.5923 -0.6417 -14.3334 3.2373 -11.0696 -32.5149 0.0000 0.0000 0.0000 12.1134 21.9663 -34.4636 -1.2969 -7.2153 20.3547 -1.8222 -2.0984 -26.3360 -2.5965 10.0114 -29.0135 -5.7562 -2.4845 -25.6391 -0.1452 -2.3037 -2.6771 2.2827 -1.6277 11.5051 8.5435 -6.6225 -8.2620 -11.2405 -9.9974 -0.7728 -4.9239 -5.3705 0.1170 -0.0000 -0.0000 0.0000 -77.0888 3.3621 37.3869 15.6158 -24.9970 -3.4820 -0.0000 -0.0000 1.9217 24.3997 -13.2940 -5.9548 -7.1250 0.0000 -0.0000 -2.0259 15.4412 1.4143 -0.0000 -0.0000 0.0000 88.5839 -8.0496 17.5397 -20.6022 31.3610 -5.8415 0.0000 -0.0000 -3.7343 -13.6578 -48.9911 10.3906 7.1250 -0.0000 -0.0000 51.6554 -74.6895 -38.4231
0.00 0.00 0.00 179.0310 -4.7575 -143.6660 0.0000 0.0000 0.0000 -5.5912 -27.3111 -50.6059 4.5667 12.8786 38.9158 0.9959 -4.9300 -17.8562 2.3971 -9.6483 -27.8453 0.0000 0.0000 0.0000 9.7615 22.7217 -47.4923 -3.6679 -11.7049 34.6959 -2.8034 0.7250 -31.5384 -2.5045 9.8461 -28.4799 -4.4889 -1.8776 -21.1277 -0.2010 -2.0544 -3.3273 1.7323 -1.3749 8.3046 7.4498 -6.4353 -8.3428 -8.9462 -9.5407 -0.6714 -4.5090 -5.0728 0.3991 0.0000 -0.0000 0.0000 -76.0967 3.5136 36.2451 15.7949 -25.2418 -3.5581 -0.0000 -0.0000 2.1198 22.8563 -12.4777 -5.2037 -7.1250 0.0000 -0.0000 -3.0456 16.4888 2.0588 0.0000 -0.0000 0.0000 87.9396 -9.8431 18.4811 -22.2626 33.2725 -6.7293 0.0000 -0.0000 -4.1690 -15.5538 -48.7957 11.8274 7.1250 -0.0000 -0.0000 49.4661 -75.3108 -37.1966
0.00 0.00 0.00 178.6660 -3.2522 -141.7750 0.0000 0.0000 0.0000 -3.8312 -25.7924 -63.1065 8.5670 16.5209 54.5804 1.3318 -9.4733 -20.7252 1.5917 -7.9582 -22.5870 0.0000 0.0000 0.0000 6.7962 23.4693 -60.5830 -7.7899 -15.9626 51.8025 -3.9953 2.9732 -37.2490 -3.2585 11.1022 -32.6252 -5.5647 -1.4696 -17.9206 -0.5653 -1.2088 -2.3026 2.2379 -0.9092 7.6496 6.0288 -6.1467 -9.0689 -6.6998 -8.9554 -0.0520 -3.5179 -4.7176 0.9503 0.0000 0.0000 0.0000 -76.0918 1.3803 34.4359 16.5326 -26.2375 -3.8784 -0.0000 -0.0000 0.6636 23.8273 -10.9195 -4.7820 -7.1250 0.0000 -0.0000 -2.2948 18.0763 1.4707 0.0000 0.0000 0.0000 86.7507 -8.7255 21.8266 -24.1607 35.3337 -7.7993 0.0000 -0.0000 -6.5621 -15.6772 -48.4041 11.8536 7.1250 -0.0000 -0.0000 48.0948 -75.1384 -35.9107
0.00 0.00 0.00 178.8410 -3.9694 -141.1700 0.0000 0.0000 0.0000 0.0619 -26.4310 -75.7519 14.3263 19.2100 73.1987 1.6998 -12.1642 -23.6263 1.4172 -7.5289 -21.2919 0.0000 0.0000 0.0000 5.2503 23.4287 -72.1836 -13.2769 -18.8799 69.9832 -5.2154 5.6786 -42.3404 -2.5584 9.9433 -28.7932 -4.5366 -1.3141 -13.4080 -0.7650 -1.2851 -1.8594 1.5134 -0.8236 5.6300 6.1800 -5.5921 -9.6466 -5.9108 -8.1309 1.3585 -3.3409 -4.2492 1.5998 0.0000 -0.0000 0.0000 -77.3668 -1.1672 29.6302 15.5024 -24.8413 -3.4342 -0.0000 -0.0000 2.7178 25.8048 -13.4482 -6.4160 -7.1250 0.0000 -0.0000 -1.0734 15.1067 0.7567 0.0000 -0.0000 0.0000 86.5800 -5.5268 23.4365 -23.8829 35.0402 -7.6392 0.0000 -0.0000 -5.1654 -18.0372 -48.0268 13.6094 7.1250 -0.0000 -0.0000 44.7495 -75.8325 -33.7905
0.00 0.00 0.00 176.0190 -17.5747 -147.8830 0.0000 0.0000 0.0000 -8.2195 -29.0501 -50.9588 7.5335 15.7651 50.8643 -0.3560 -11.9591 -1.7138 0.1103 2.1416 5.8972 0.0000 0.0000 0.0000 15.0943 9.5281 -50.5288 -7.9596 -16.0894 52.4169 -2.2257 -0.9585 -28.5898 -3.4370 11.3709 -33.5413 -6.5306 -0.6495 -17.9041 -1.5915 0.0073 -3.2896 1.9790 -0.3206 6.4609 9.4383 -1.4464 -6.0765 -9.3613 -2.7772 -2.6120 -4.3941 -1.6071 -0.0355 -0.0000 -0.0000 0.0000 -75.4898 -2.1317 45.5467 23.6274 -34.7678 -7.4930 -0.0000 -0.0000 2.4966 26.4284 -13.5406 -6.6376 -7.1250 0.0000 -0.0000 -0.6542 14.9278 0.4636 -0.0000 -0.0000 0.0000 76.9863 1.4727 40.7985 -32.1831 42.6926 -12.8648 0.0000 -0.0000 -8.0702 -18.5897 -46.6271 13.7384 7.1250 -0.0000 -0.0000 39.8701 -75.1510 -29.3286
0.00 0.00 0.00 176.1370 -22.4001 -148.1300 0.0000 0.0000 0.0000 -9.1650 -26.2753 -43.6372 3.9193 12.0522 35.9170 0.4206 -4.1535 14.4860 0.0003 -0.1026 -0.2819 0.0000 0.0000 0.0000 16.8736 7.0557 -41.6076 -3.9996 -12.1599 36.2999 -0.2736 -5.8676 -13.7633 -4.4213 12.7009 -38.2590 -7.2163 -1.2577 -21.8877 -0.8467 -0.4353 -3.3445 3.0330 -0.6506 8.5790 8.4563 -1.1391 -5.0017 -8.5575 -2.2737 -3.7100 -4.3762 -1.3297 -0.5171 -0.0000 0.0000 0.0000 -76.2714 -1.9740 46.3472 24.0472 -35.2142 -7.7338 -0.0000 -0.0000 1.8378 27.5437 -14.3893 -7.3848 -7.1250 0.0000 -0.0000 0.0318 13.8418 -0.0232 -0.0000 0.0000 0.0000 77.1405 0.1361 37.8028 -31.5223 42.1630 -12.4190 0.0000 -0.0000 -9.4482 -17.8702 -44.7417 12.7868 7.1250 -0.0000 -0.0000 35.6213 -73.5489 -24.8684
0.00 0.00 0.00 175.9110 -27.4921 -147.4170 0.0000 0.0000 0.0000 -9.6820 -24.1063 -38.2087 1.3261 7.2927 20.5856 3.0165 7.8822 31.4551 0.2562 -3.2566 -8.9940 0.0000 0.0000 0.0000 16.1286 8.9484 -32.2117 -1.1825 -6.9012 19.4230 0.7523 -16.8352 1.6459 -3.7483 11.8177 -35.0902 -6.8077 -1.8294 -25.4865 -0.9056 -1.1262 -3.7669 2.4682 -1.0543 10.0665 7.9306 -0.9505 -4.0850 -8.1533 -1.9601 -4.4868 -4.1123 -1.1482 -0.8925 0.0000 0.0000 0.0000 -75.8956 -1.2016 47.5244 24.5041 -35.6928 -7.9988 -0.0000 0.0000 -1.1447 28.6862 -14.4470 -7.7735 -7.1250 0.0000 -0.0000 0.7972 13.6147 -0.5872 0.0000 0.0000 0.0000 79.0081 -1.7124 35.0774 -30.9163 41.6660 -12.0142 0.0000 -0.0000 -9.8190 -19.8344 -46.1609 14.5833 7.1250 -0.0000 -0.0000 37.1928 -75.3083 -27.3546
0.00 0.00 0.00 175.3200 -33.5267 -146.3310 0.0000 0.0000 0.0000 -10.4189 -23.0489 -35.7788 0.4376 4.2448 11.7665 3.9263 12.9107 35.9587 1.1747 -6.8792 -19.3581 0.0000 0.0000 0.0000 12.9222 18.4257 -20.7532 -0.0234 -0.9871 2.7134 5.1013 -38.7572 -0.7352 -0.3702 3.9084 -10.8190 -6.0722 -2.7750 -27.7768 -0.4781 -2.5965 -4.5236 1.9571 -1.7720 10.5085 6.5775 -0.6741 -2.8687 -7.5862 -1.4929 -5.2380 -3.6380 -0.8702 -1.2892 0.0000 -0.0000 0.0000 -76.2578 0.6634 48.6069 25.7949 -37.0055 -8.7639 -0.0000 0.0000 -4.0378 28.5061 -13.6142 -7.2849 -7.1250 0.0000 -0.0000 0.7553 14.5725 -0.5410 0.0000 -0.0000 0.0000 79.0766 -3.8028 34.6922 -30.4115 41.2435 -11.6800 0.0000 -0.0000 -9.9704 -19.9662 -48.5579 15.2345 7.1250 -0.0000 -0.0000 44.7827 -76.9159 -34.7333
0.00 0.00 0.00 173.8990 -48.7671 -148.5650 0.0000 0.0000 0.0000 -16.6344 -15.3738 -33.0614 1.0277 6.4486 18.0918 1.8702 13.1050 24.8556 4.0690 -12.2517 -36.6282 0.0000 0.0000 0.0000 16.1164 9.3510 -26.5726 -1.3821 -7.4389 21.0225 -0.8866 -21.9934 21.5027 -2.0686 9.0075 -25.8189 -5.5002 -2.7320 -25.8746 0.2145 -2.6136 -3.8392 2.4680 -1.6670 10.3374 2.2244 -0.4576 -1.2376 -3.9055 -0.9453 -6.2664 -1.5980 -0.5103 -1.7831 0.0000 -0.0000 0.0000 -81.0010 -4.9687 52.1630 23.7789 -34.9296 -7.5796 -0.0000 0.0000 -0.6649 25.0960 -16.3730 -7.5209 -7.1250 0.0000 -0.0000 -1.7820 12.0117 1.3728 0.0000 -0.0000 0.0000 80.5002 -6.1827 32.0850 -23.8160 34.9691 -7.6009 0.0000 -0.0000 -3.9429 -17.8875 -44.1584 12.6718 7.1250 -0.0000 -0.0000 34.2234 -73.1196 -23.5313
